<svg xmlns="http://www.w3.org/2000/svg" xmlns:xlink="http://www.w3.org/1999/xlink" width="1000" zoomAndPan="magnify" viewBox="0 0 750 374.999991" height="500" preserveAspectRatio="xMidYMid meet" version="1.0"><defs><g/></defs><g fill="#ffffff" fill-opacity="1"><g transform="translate(0.570639, 284.388888)"><g><path d="M 9.171875 -97.84375 C 9.171875 -117.113281 13.335938 -134.300781 21.671875 -149.40625 C 30.015625 -164.507812 41.644531 -176.273438 56.5625 -184.703125 C 71.476562 -193.140625 88.390625 -197.359375 107.296875 -197.359375 C 130.460938 -197.359375 150.289062 -191.242188 166.78125 -179.015625 C 183.269531 -166.785156 194.296875 -150.109375 199.859375 -128.984375 L 147.59375 -128.984375 C 143.707031 -137.128906 138.195312 -143.332031 131.0625 -147.59375 C 123.925781 -151.863281 115.816406 -154 106.734375 -154 C 92.097656 -154 80.238281 -148.898438 71.15625 -138.703125 C 62.082031 -128.515625 57.546875 -114.894531 57.546875 -97.84375 C 57.546875 -80.789062 62.082031 -67.164062 71.15625 -56.96875 C 80.238281 -46.78125 92.097656 -41.6875 106.734375 -41.6875 C 115.816406 -41.6875 123.925781 -43.816406 131.0625 -48.078125 C 138.195312 -52.347656 143.707031 -58.5625 147.59375 -66.71875 L 199.859375 -66.71875 C 194.296875 -45.59375 183.269531 -28.957031 166.78125 -16.8125 C 150.289062 -4.675781 130.460938 1.390625 107.296875 1.390625 C 88.390625 1.390625 71.476562 -2.820312 56.5625 -11.25 C 41.644531 -19.6875 30.015625 -31.410156 21.671875 -46.421875 C 13.335938 -61.429688 9.171875 -78.570312 9.171875 -97.84375 Z M 9.171875 -97.84375 "/></g></g></g><g fill="#ffffff" fill-opacity="1"><g transform="translate(212.379573, 284.388888)"><g><path d="M 87.84375 2.21875 C 72.644531 2.21875 58.972656 -1.019531 46.828125 -7.5 C 34.691406 -13.988281 25.148438 -23.253906 18.203125 -35.296875 C 11.253906 -47.347656 7.78125 -61.429688 7.78125 -77.546875 C 7.78125 -93.484375 11.300781 -107.519531 18.34375 -119.65625 C 25.382812 -131.800781 35.019531 -141.113281 47.25 -147.59375 C 59.476562 -154.082031 73.191406 -157.328125 88.390625 -157.328125 C 103.585938 -157.328125 117.300781 -154.082031 129.53125 -147.59375 C 141.757812 -141.113281 151.394531 -131.800781 158.4375 -119.65625 C 165.476562 -107.519531 169 -93.484375 169 -77.546875 C 169 -61.609375 165.429688 -47.570312 158.296875 -35.4375 C 151.160156 -23.300781 141.429688 -13.988281 129.109375 -7.5 C 116.785156 -1.019531 103.03125 2.21875 87.84375 2.21875 Z M 87.84375 -38.921875 C 96.914062 -38.921875 104.648438 -42.253906 111.046875 -48.921875 C 117.441406 -55.585938 120.640625 -65.128906 120.640625 -77.546875 C 120.640625 -89.960938 117.535156 -99.503906 111.328125 -106.171875 C 105.117188 -112.847656 97.472656 -116.1875 88.390625 -116.1875 C 79.128906 -116.1875 71.441406 -112.894531 65.328125 -106.3125 C 59.210938 -99.738281 56.15625 -90.148438 56.15625 -77.546875 C 56.15625 -65.128906 59.164062 -55.585938 65.1875 -48.921875 C 71.207031 -42.253906 78.757812 -38.921875 87.84375 -38.921875 Z M 87.84375 -38.921875 "/></g></g></g><g fill="#ffffff" fill-opacity="1"><g transform="translate(389.442958, 284.388888)"><g><path d="M 7.78125 -77.828125 C 7.78125 -93.765625 10.789062 -107.753906 16.8125 -119.796875 C 22.832031 -131.847656 31.03125 -141.113281 41.40625 -147.59375 C 51.789062 -154.082031 63.375 -157.328125 76.15625 -157.328125 C 86.351562 -157.328125 95.664062 -155.195312 104.09375 -150.9375 C 112.53125 -146.675781 119.15625 -140.929688 123.96875 -133.703125 L 123.96875 -205.703125 L 171.5 -205.703125 L 171.5 0 L 123.96875 0 L 123.96875 -22.234375 C 119.519531 -14.828125 113.171875 -8.898438 104.921875 -4.453125 C 96.679688 -0.00390625 87.09375 2.21875 76.15625 2.21875 C 63.375 2.21875 51.789062 -1.066406 41.40625 -7.640625 C 31.03125 -14.222656 22.832031 -23.582031 16.8125 -35.71875 C 10.789062 -47.851562 7.78125 -61.890625 7.78125 -77.828125 Z M 123.96875 -77.546875 C 123.96875 -89.410156 120.675781 -98.769531 114.09375 -105.625 C 107.519531 -112.476562 99.507812 -115.90625 90.0625 -115.90625 C 80.613281 -115.90625 72.597656 -112.523438 66.015625 -105.765625 C 59.441406 -99.003906 56.15625 -89.691406 56.15625 -77.828125 C 56.15625 -65.972656 59.441406 -56.566406 66.015625 -49.609375 C 72.597656 -42.660156 80.613281 -39.1875 90.0625 -39.1875 C 99.507812 -39.1875 107.519531 -42.613281 114.09375 -49.46875 C 120.675781 -56.332031 123.96875 -65.691406 123.96875 -77.546875 Z M 123.96875 -77.546875 "/></g></g></g><g fill="#ffffff" fill-opacity="1"><g transform="translate(578.180874, 284.388888)"><g><path d="M 163.453125 -80.0625 C 163.453125 -75.613281 163.171875 -70.976562 162.609375 -66.15625 L 55.03125 -66.15625 C 55.78125 -56.519531 58.882812 -49.148438 64.34375 -44.046875 C 69.8125 -38.953125 76.53125 -36.40625 84.5 -36.40625 C 96.363281 -36.40625 104.609375 -41.410156 109.234375 -51.421875 L 159.828125 -51.421875 C 157.234375 -41.234375 152.554688 -32.0625 145.796875 -23.90625 C 139.035156 -15.75 130.554688 -9.351562 120.359375 -4.71875 C 110.171875 -0.09375 98.773438 2.21875 86.171875 2.21875 C 70.972656 2.21875 57.441406 -1.019531 45.578125 -7.5 C 33.722656 -13.988281 24.457031 -23.253906 17.78125 -35.296875 C 11.113281 -47.347656 7.78125 -61.429688 7.78125 -77.546875 C 7.78125 -93.671875 11.066406 -107.753906 17.640625 -119.796875 C 24.222656 -131.847656 33.441406 -141.113281 45.296875 -147.59375 C 57.160156 -154.082031 70.785156 -157.328125 86.171875 -157.328125 C 101.179688 -157.328125 114.519531 -154.175781 126.1875 -147.875 C 137.863281 -141.570312 146.992188 -132.582031 153.578125 -120.90625 C 160.160156 -109.238281 163.453125 -95.625 163.453125 -80.0625 Z M 114.796875 -92.5625 C 114.796875 -100.71875 112.015625 -107.203125 106.453125 -112.015625 C 100.898438 -116.835938 93.953125 -119.25 85.609375 -119.25 C 77.640625 -119.25 70.921875 -116.929688 65.453125 -112.296875 C 59.992188 -107.660156 56.613281 -101.082031 55.3125 -92.5625 Z M 114.796875 -92.5625 "/></g></g></g></svg>