<svg xmlns="http://www.w3.org/2000/svg" xmlns:xlink="http://www.w3.org/1999/xlink" width="750" zoomAndPan="magnify" viewBox="0 0 562.5 187.499995" height="250" preserveAspectRatio="xMidYMid meet" version="1.0"><defs><g/></defs><g fill="#ffffff" fill-opacity="1"><g transform="translate(-6.713305, 137.46059)"><g><path d="M 70.90625 -57.015625 L 70.90625 -91.40625 L 88.90625 -91.40625 L 88.90625 0 L 70.90625 0 L 70.90625 -41.640625 L 29.953125 -41.640625 L 29.953125 0 L 11.875 0 L 11.875 -91.40625 L 29.953125 -91.40625 L 29.953125 -57.015625 Z M 70.90625 -57.015625 "/></g></g></g><g fill="#ffffff" fill-opacity="1"><g transform="translate(94.125301, 137.46059)"><g/></g></g><g fill="#ffffff" fill-opacity="1"><g transform="translate(124.320618, 137.46059)"><g><path d="M 29.953125 -40.140625 L 29.953125 -15.125 L 73.59375 -15.125 L 73.59375 0 L 11.875 0 L 11.875 -91.40625 L 72.59375 -91.40625 L 72.59375 -76.28125 L 29.953125 -76.28125 L 29.953125 -54.890625 L 67.21875 -54.890625 L 67.21875 -40.140625 Z M 29.953125 -40.140625 "/></g></g></g><g fill="#ffffff" fill-opacity="1"><g transform="translate(202.903462, 137.46059)"><g><path d="M 32.265625 1.3125 C 27.554688 1.3125 23.238281 0.757812 19.3125 -0.34375 C 15.394531 -1.445312 12.050781 -2.96875 9.28125 -4.90625 C 6.507812 -6.84375 4.457031 -9.0625 3.125 -11.5625 L 12.75 -21.953125 L 14.0625 -21.953125 C 16.351562 -18.859375 19.0625 -16.539062 22.1875 -15 C 25.320312 -13.457031 28.722656 -12.6875 32.390625 -12.6875 C 35.765625 -12.6875 38.304688 -13.289062 40.015625 -14.5 C 41.722656 -15.707031 42.578125 -17.4375 42.578125 -19.6875 C 42.578125 -21.445312 41.960938 -22.921875 40.734375 -24.109375 C 39.503906 -25.296875 37.515625 -26.222656 34.765625 -26.890625 L 25.640625 -29.078125 C 18.796875 -30.703125 13.800781 -33.191406 10.65625 -36.546875 C 7.507812 -39.898438 5.9375 -44.160156 5.9375 -49.328125 C 5.9375 -53.617188 7.03125 -57.347656 9.21875 -60.515625 C 11.40625 -63.691406 14.488281 -66.113281 18.46875 -67.78125 C 22.457031 -69.445312 27.097656 -70.28125 32.390625 -70.28125 C 38.597656 -70.28125 43.742188 -69.382812 47.828125 -67.59375 C 51.910156 -65.800781 55.097656 -63.398438 57.390625 -60.390625 L 48.140625 -50.390625 L 46.890625 -50.390625 C 44.972656 -52.554688 42.816406 -54.140625 40.421875 -55.140625 C 38.023438 -56.140625 35.347656 -56.640625 32.390625 -56.640625 C 25.554688 -56.640625 22.140625 -54.515625 22.140625 -50.265625 C 22.140625 -48.472656 22.773438 -47.015625 24.046875 -45.890625 C 25.316406 -44.765625 27.554688 -43.847656 30.765625 -43.140625 L 39.265625 -41.265625 C 46.265625 -39.765625 51.378906 -37.359375 54.609375 -34.046875 C 57.835938 -30.734375 59.453125 -26.28125 59.453125 -20.6875 C 59.453125 -16.3125 58.367188 -12.457031 56.203125 -9.125 C 54.035156 -5.789062 50.910156 -3.21875 46.828125 -1.40625 C 42.742188 0.40625 37.890625 1.3125 32.265625 1.3125 Z M 32.265625 1.3125 "/></g></g></g><g fill="#ffffff" fill-opacity="1"><g transform="translate(266.482421, 137.46059)"><g><path d="M 9.9375 0 L 9.9375 -96.65625 L 27.265625 -96.65625 L 27.265625 -59.953125 L 28.578125 -59.703125 C 30.867188 -63.085938 33.679688 -65.695312 37.015625 -67.53125 C 40.347656 -69.363281 44.367188 -70.28125 49.078125 -70.28125 C 64.296875 -70.28125 71.90625 -61.648438 71.90625 -44.390625 L 71.90625 0 L 54.578125 0 L 54.578125 -42.203125 C 54.578125 -46.910156 53.640625 -50.328125 51.765625 -52.453125 C 49.890625 -54.578125 46.972656 -55.640625 43.015625 -55.640625 C 38.179688 -55.640625 34.347656 -54.023438 31.515625 -50.796875 C 28.679688 -47.566406 27.265625 -42.535156 27.265625 -35.703125 L 27.265625 0 Z M 9.9375 0 "/></g></g></g><g fill="#ffffff" fill-opacity="1"><g transform="translate(347.253331, 137.46059)"><g/></g></g><g fill="#ffffff" fill-opacity="1"><g transform="translate(377.448648, 137.46059)"><g><path d="M 87.71875 0 L 68.71875 0 L 61.828125 -21.0625 L 26.828125 -21.0625 L 19.9375 0 L 1.375 0 L 32.953125 -91.40625 L 56.140625 -91.40625 Z M 43.453125 -72.34375 L 31.703125 -36.265625 L 56.828125 -36.265625 L 45.015625 -72.34375 Z M 43.453125 -72.34375 "/></g></g></g><g fill="#ffffff" fill-opacity="1"><g transform="translate(466.534213, 137.46059)"><g><path d="M 29.390625 0 L 11.875 0 L 11.875 -91.40625 L 32.578125 -91.40625 L 69.28125 -32.515625 L 70.90625 -32.765625 L 70.90625 -91.40625 L 88.28125 -91.40625 L 88.28125 0 L 69.78125 0 L 30.953125 -62.890625 L 29.390625 -62.640625 Z M 29.390625 0 "/></g></g></g></svg>